<svg width="1280" height="648" viewBox="0 0 1280 648" fill="none" xmlns="http://www.w3.org/2000/svg">
<path d="M99.0385 46.0625C100.735 45.2894 102.625 46.576 102.574 48.3987L102.564 48.5769L100.572 69.266C100.387 71.1815 98.1983 72.179 96.6315 71.0617L79.71 58.9917C78.1925 57.909 78.3613 55.6278 79.9654 54.7608L80.1251 54.6815L99.0385 46.0625Z" stroke="black" stroke-opacity="0.1"/>
<path d="M423.038 134.062C424.735 133.289 426.625 134.576 426.574 136.399L426.564 136.577L424.572 157.266C424.387 159.181 422.198 160.179 420.631 159.062L403.71 146.992C402.192 145.909 402.361 143.628 403.965 142.761L404.125 142.682L423.038 134.062Z" stroke="black" stroke-opacity="0.1"/>
<path d="M95.0385 119.062C96.7349 118.289 98.6255 119.576 98.5744 121.399L98.5637 121.577L96.5718 142.266C96.3872 144.181 94.1983 145.179 92.6315 144.062L75.71 131.992C74.1925 130.909 74.3613 128.628 75.9654 127.761L76.1251 127.682L95.0385 119.062Z" stroke="black" stroke-opacity="0.1"/>
<path d="M140.038 199.062C141.735 198.289 143.625 199.576 143.574 201.399L143.564 201.577L141.572 222.266C141.387 224.181 139.198 225.179 137.631 224.062L120.71 211.992C119.192 210.909 119.361 208.628 120.965 207.761L121.125 207.682L140.038 199.062Z" stroke="black" stroke-opacity="0.1"/>
<path d="M300.038 134.062C301.735 133.289 303.625 134.576 303.574 136.399L303.564 136.577L301.572 157.266C301.387 159.181 299.198 160.179 297.631 159.062L280.71 146.992C279.192 145.909 279.361 143.628 280.965 142.761L281.125 142.682L300.038 134.062Z" stroke="black" stroke-opacity="0.1"/>
<rect x="149.5" y="83.5" width="19" height="19" rx="2.5" stroke="black" stroke-opacity="0.1"/>
<rect x="259.5" y="226.5" width="19" height="19" rx="2.5" stroke="black" stroke-opacity="0.1"/>
<rect x="221.5" y="38.5" width="19" height="19" rx="2.5" stroke="black" stroke-opacity="0.1"/>
<rect x="201.5" y="175.5" width="19" height="19" rx="2.5" stroke="black" stroke-opacity="0.1"/>
<rect x="335.5" y="96.5" width="19" height="19" rx="2.5" stroke="black" stroke-opacity="0.1"/>
<rect x="382.5" y="52.5" width="19" height="19" rx="2.5" stroke="black" stroke-opacity="0.1"/>
<circle cx="228.5" cy="129.5" r="12" stroke="black" stroke-opacity="0.1"/>
<circle cx="281.5" cy="80.5" r="12" stroke="black" stroke-opacity="0.1"/>
<circle cx="347.5" cy="194.5" r="12" stroke="black" stroke-opacity="0.1"/>
<path d="M74.0385 251.062C75.7349 250.289 77.6255 251.576 77.5744 253.399L77.5637 253.577L75.5718 274.266C75.3872 276.181 73.1983 277.179 71.6315 276.062L54.71 263.992C53.1925 262.909 53.3613 260.628 54.9654 259.761L55.1251 259.682L74.0385 251.062Z" stroke="black" stroke-opacity="0.1"/>
<path d="M398.038 339.062C399.735 338.289 401.625 339.576 401.574 341.399L401.564 341.577L399.572 362.266C399.387 364.181 397.198 365.179 395.631 364.062L378.71 351.992C377.192 350.909 377.361 348.628 378.965 347.761L379.125 347.682L398.038 339.062Z" stroke="black" stroke-opacity="0.1"/>
<path d="M70.0385 324.062C71.7349 323.289 73.6255 324.576 73.5744 326.399L73.5637 326.577L71.5718 347.266C71.3872 349.181 69.1983 350.179 67.6315 349.062L50.71 336.992C49.1925 335.909 49.3613 333.628 50.9654 332.761L51.1251 332.682L70.0385 324.062Z" stroke="black" stroke-opacity="0.1"/>
<path d="M115.038 404.062C116.735 403.289 118.625 404.576 118.574 406.399L118.564 406.577L116.572 427.266C116.387 429.181 114.198 430.179 112.631 429.062L95.71 416.992C94.1924 415.909 94.3612 413.628 95.9653 412.761L96.125 412.682L115.038 404.062Z" stroke="black" stroke-opacity="0.1"/>
<path d="M275.038 339.062C276.735 338.289 278.625 339.576 278.574 341.399L278.564 341.577L276.572 362.266C276.387 364.181 274.198 365.179 272.631 364.062L255.71 351.992C254.192 350.909 254.361 348.628 255.965 347.761L256.125 347.682L275.038 339.062Z" stroke="black" stroke-opacity="0.1"/>
<rect x="124.5" y="288.5" width="19" height="19" rx="2.5" stroke="black" stroke-opacity="0.1"/>
<rect x="234.5" y="431.5" width="19" height="19" rx="2.5" stroke="black" stroke-opacity="0.1"/>
<rect x="196.5" y="243.5" width="19" height="19" rx="2.5" stroke="black" stroke-opacity="0.1"/>
<rect x="176.5" y="380.5" width="19" height="19" rx="2.5" stroke="black" stroke-opacity="0.1"/>
<rect x="310.5" y="301.5" width="19" height="19" rx="2.5" stroke="black" stroke-opacity="0.1"/>
<rect x="357.5" y="257.5" width="19" height="19" rx="2.5" stroke="black" stroke-opacity="0.1"/>
<circle cx="203.5" cy="334.5" r="12" stroke="black" stroke-opacity="0.1"/>
<circle cx="256.5" cy="285.5" r="12" stroke="black" stroke-opacity="0.1"/>
<circle cx="322.5" cy="399.5" r="12" stroke="black" stroke-opacity="0.1"/>
<path d="M481.038 80.0625C482.735 79.2894 484.625 80.576 484.574 82.3987L484.564 82.5769L482.572 103.266C482.387 105.181 480.198 106.179 478.631 105.062L461.71 92.9917C460.192 91.909 460.361 89.6278 461.965 88.7608L462.125 88.6815L481.038 80.0625Z" stroke="black" stroke-opacity="0.1"/>
<path d="M805.038 168.062C806.735 167.289 808.625 168.576 808.574 170.399L808.564 170.577L806.572 191.266C806.387 193.181 804.198 194.179 802.631 193.062L785.71 180.992C784.192 179.909 784.361 177.628 785.965 176.761L786.125 176.682L805.038 168.062Z" stroke="black" stroke-opacity="0.1"/>
<path d="M477.038 153.062C478.735 152.289 480.625 153.576 480.574 155.399L480.564 155.577L478.572 176.266C478.387 178.181 476.198 179.179 474.631 178.062L457.71 165.992C456.192 164.909 456.361 162.628 457.965 161.761L458.125 161.682L477.038 153.062Z" stroke="black" stroke-opacity="0.1"/>
<path d="M522.038 233.062C523.735 232.289 525.625 233.576 525.574 235.399L525.564 235.577L523.572 256.266C523.387 258.181 521.198 259.179 519.631 258.062L502.71 245.992C501.192 244.909 501.361 242.628 502.965 241.761L503.125 241.682L522.038 233.062Z" stroke="black" stroke-opacity="0.1"/>
<path d="M682.038 168.062C683.735 167.289 685.625 168.576 685.574 170.399L685.564 170.577L683.572 191.266C683.387 193.181 681.198 194.179 679.631 193.062L662.71 180.992C661.192 179.909 661.361 177.628 662.965 176.761L663.125 176.682L682.038 168.062Z" stroke="black" stroke-opacity="0.1"/>
<rect x="531.5" y="117.5" width="19" height="19" rx="2.5" stroke="black" stroke-opacity="0.1"/>
<rect x="641.5" y="260.5" width="19" height="19" rx="2.5" stroke="black" stroke-opacity="0.1"/>
<rect x="603.5" y="72.5" width="19" height="19" rx="2.5" stroke="black" stroke-opacity="0.1"/>
<rect x="583.5" y="209.5" width="19" height="19" rx="2.5" stroke="black" stroke-opacity="0.1"/>
<rect x="717.5" y="130.5" width="19" height="19" rx="2.5" stroke="black" stroke-opacity="0.1"/>
<rect x="764.5" y="86.5" width="19" height="19" rx="2.5" stroke="black" stroke-opacity="0.1"/>
<circle cx="610.5" cy="163.5" r="12" stroke="black" stroke-opacity="0.1"/>
<circle cx="663.5" cy="114.5" r="12" stroke="black" stroke-opacity="0.1"/>
<circle cx="729.5" cy="228.5" r="12" stroke="black" stroke-opacity="0.1"/>
<path d="M869.038 36.0625C870.735 35.2894 872.625 36.576 872.574 38.3987L872.564 38.5769L870.572 59.266C870.387 61.1815 868.198 62.179 866.631 61.0617L849.71 48.9917C848.192 47.909 848.361 45.6278 849.965 44.7608L850.125 44.6815L869.038 36.0625Z" stroke="black" stroke-opacity="0.1"/>
<path d="M1193.04 124.062C1194.73 123.289 1196.63 124.576 1196.57 126.399L1196.56 126.577L1194.57 147.266C1194.39 149.181 1192.2 150.179 1190.63 149.062L1173.71 136.992C1172.19 135.909 1172.36 133.628 1173.97 132.761L1174.13 132.682L1193.04 124.062Z" stroke="black" stroke-opacity="0.1"/>
<path d="M865.038 109.062C866.735 108.289 868.625 109.576 868.574 111.399L868.564 111.577L866.572 132.266C866.387 134.181 864.198 135.179 862.631 134.062L845.71 121.992C844.192 120.909 844.361 118.628 845.965 117.761L846.125 117.682L865.038 109.062Z" stroke="black" stroke-opacity="0.1"/>
<path d="M910.038 189.062C911.735 188.289 913.625 189.576 913.574 191.399L913.564 191.577L911.572 212.266C911.387 214.181 909.198 215.179 907.631 214.062L890.71 201.992C889.192 200.909 889.361 198.628 890.965 197.761L891.125 197.682L910.038 189.062Z" stroke="black" stroke-opacity="0.1"/>
<path d="M1070.04 124.062C1071.73 123.289 1073.63 124.576 1073.57 126.399L1073.56 126.577L1071.57 147.266C1071.39 149.181 1069.2 150.179 1067.63 149.062L1050.71 136.992C1049.19 135.909 1049.36 133.628 1050.97 132.761L1051.13 132.682L1070.04 124.062Z" stroke="black" stroke-opacity="0.1"/>
<rect x="919.5" y="73.5" width="19" height="19" rx="2.5" stroke="black" stroke-opacity="0.1"/>
<rect x="1029.5" y="216.5" width="19" height="19" rx="2.5" stroke="black" stroke-opacity="0.1"/>
<rect x="991.5" y="28.5" width="19" height="19" rx="2.5" stroke="black" stroke-opacity="0.1"/>
<rect x="971.5" y="165.5" width="19" height="19" rx="2.5" stroke="black" stroke-opacity="0.1"/>
<rect x="1105.5" y="86.5" width="19" height="19" rx="2.5" stroke="black" stroke-opacity="0.1"/>
<rect x="1152.5" y="42.5" width="19" height="19" rx="2.5" stroke="black" stroke-opacity="0.1"/>
<circle cx="998.5" cy="119.5" r="12" stroke="black" stroke-opacity="0.1"/>
<circle cx="1051.5" cy="70.5" r="12" stroke="black" stroke-opacity="0.1"/>
<circle cx="1117.5" cy="184.5" r="12" stroke="black" stroke-opacity="0.1"/>
<path d="M1250.94 67.0384C1251.71 68.7348 1250.42 70.6254 1248.6 70.5744L1248.42 70.5636L1227.73 68.5717C1225.82 68.3872 1224.82 66.1982 1225.94 64.6315L1238.01 47.71C1239.09 46.1924 1241.37 46.3612 1242.24 47.9653L1242.32 48.125L1250.94 67.0384Z" stroke="black" stroke-opacity="0.1"/>
<rect x="1223.5" y="186.5" width="19" height="19" rx="2.5" transform="rotate(90 1223.5 186.5)" stroke="black" stroke-opacity="0.1"/>
<rect x="1274.5" y="128.5" width="19" height="19" rx="2.5" transform="rotate(90 1274.5 128.5)" stroke="black" stroke-opacity="0.1"/>
<circle cx="1255.5" cy="274.5" r="12" transform="rotate(90 1255.5 274.5)" stroke="black" stroke-opacity="0.1"/>
<path d="M1171.53 413.736C1171.58 415.599 1169.66 416.837 1168 416.078L1167.84 415.998L1149.57 406.081C1147.88 405.162 1147.82 402.758 1149.46 401.752L1167.18 390.892C1168.77 389.918 1170.81 390.965 1170.98 392.78L1170.99 392.958L1171.53 413.736Z" stroke="black" stroke-opacity="0.1"/>
<path d="M1219.59 300.513C1219.64 302.377 1217.72 303.615 1216.06 302.856L1215.9 302.776L1197.63 292.859C1195.94 291.94 1195.88 289.536 1197.52 288.53L1215.24 277.67C1216.83 276.696 1218.87 277.743 1219.04 279.558L1219.05 279.736L1219.59 300.513Z" stroke="black" stroke-opacity="0.1"/>
<rect x="1150.34" y="227.079" width="19" height="19" rx="2.5" transform="rotate(113 1150.34 227.079)" stroke="black" stroke-opacity="0.1"/>
<circle cx="1145.41" cy="320.587" r="12" transform="rotate(113 1145.41 320.587)" stroke="black" stroke-opacity="0.1"/>
<path d="M1074.04 390.062C1075.73 389.289 1077.63 390.576 1077.57 392.399L1077.56 392.577L1075.57 413.266C1075.39 415.181 1073.2 416.179 1071.63 415.062L1054.71 402.992C1053.19 401.909 1053.36 399.628 1054.97 398.761L1055.13 398.682L1074.04 390.062Z" stroke="black" stroke-opacity="0.1"/>
<path d="M1070.04 463.062C1071.73 462.289 1073.63 463.576 1073.57 465.399L1073.56 465.577L1071.57 486.266C1071.39 488.181 1069.2 489.179 1067.63 488.062L1050.71 475.992C1049.19 474.909 1049.36 472.628 1050.97 471.761L1051.13 471.682L1070.04 463.062Z" stroke="black" stroke-opacity="0.1"/>
<path d="M1115.04 543.062C1116.73 542.289 1118.63 543.576 1118.57 545.399L1118.56 545.577L1116.57 566.266C1116.39 568.181 1114.2 569.179 1112.63 568.062L1095.71 555.992C1094.19 554.909 1094.36 552.628 1095.97 551.761L1096.13 551.682L1115.04 543.062Z" stroke="black" stroke-opacity="0.1"/>
<path d="M1275.04 478.062C1276.73 477.289 1278.63 478.576 1278.57 480.399L1278.56 480.577L1276.57 501.266C1276.39 503.181 1274.2 504.179 1272.63 503.062L1255.71 490.992C1254.19 489.909 1254.36 487.628 1255.97 486.761L1256.13 486.682L1275.04 478.062Z" stroke="black" stroke-opacity="0.1"/>
<rect x="1124.5" y="427.5" width="19" height="19" rx="2.5" stroke="black" stroke-opacity="0.1"/>
<rect x="1234.5" y="570.5" width="19" height="19" rx="2.5" stroke="black" stroke-opacity="0.1"/>
<rect x="1196.5" y="382.5" width="19" height="19" rx="2.5" stroke="black" stroke-opacity="0.1"/>
<rect x="1176.5" y="519.5" width="19" height="19" rx="2.5" stroke="black" stroke-opacity="0.1"/>
<circle cx="1203.5" cy="473.5" r="12" stroke="black" stroke-opacity="0.1"/>
<circle cx="1256.5" cy="424.5" r="12" stroke="black" stroke-opacity="0.1"/>
<path d="M17.0385 487.062C18.7349 486.289 20.6255 487.576 20.5744 489.399L20.5637 489.577L18.5718 510.266C18.3872 512.181 16.1983 513.179 14.6315 512.062L-2.28997 499.992C-3.80754 498.909 -3.6387 496.628 -2.0346 495.761L-1.87493 495.682L17.0385 487.062Z" stroke="black" stroke-opacity="0.1"/>
<path d="M341.038 575.062C342.735 574.289 344.625 575.576 344.574 577.399L344.564 577.577L342.572 598.266C342.387 600.181 340.198 601.179 338.631 600.062L321.71 587.992C320.192 586.909 320.361 584.628 321.965 583.761L322.125 583.682L341.038 575.062Z" stroke="black" stroke-opacity="0.1"/>
<path d="M13.0385 560.062C14.7349 559.289 16.6255 560.576 16.5744 562.399L16.5637 562.577L14.5718 583.266C14.3872 585.181 12.1983 586.179 10.6315 585.062L-6.28997 572.992C-7.80754 571.909 -7.6387 569.628 -6.0346 568.761L-5.87493 568.682L13.0385 560.062Z" stroke="black" stroke-opacity="0.1"/>
<path d="M218.038 575.062C219.735 574.289 221.625 575.576 221.574 577.399L221.564 577.577L219.572 598.266C219.387 600.181 217.198 601.179 215.631 600.062L198.71 587.992C197.192 586.909 197.361 584.628 198.965 583.761L199.125 583.682L218.038 575.062Z" stroke="black" stroke-opacity="0.1"/>
<rect x="67.5" y="524.5" width="19" height="19" rx="2.5" stroke="black" stroke-opacity="0.1"/>
<rect x="139.5" y="479.5" width="19" height="19" rx="2.5" stroke="black" stroke-opacity="0.1"/>
<rect x="253.5" y="537.5" width="19" height="19" rx="2.5" stroke="black" stroke-opacity="0.1"/>
<rect x="300.5" y="493.5" width="19" height="19" rx="2.5" stroke="black" stroke-opacity="0.1"/>
<circle cx="146.5" cy="570.5" r="12" stroke="black" stroke-opacity="0.1"/>
<circle cx="199.5" cy="521.5" r="12" stroke="black" stroke-opacity="0.1"/>
<path d="M547.349 197.353C548.939 198.327 548.929 200.614 547.389 201.591L547.236 201.681L528.97 211.599C527.279 212.517 525.228 211.26 525.278 209.337L525.822 188.559C525.871 186.695 527.856 185.559 529.472 186.404L529.627 186.492L547.349 197.353Z" stroke="black" stroke-opacity="0.1"/>
<path d="M655.572 515.17C657.162 516.144 657.152 518.431 655.613 519.408L655.459 519.498L637.193 529.416C635.502 530.334 633.451 529.077 633.501 527.154L634.045 506.376C634.094 504.512 636.08 503.376 637.695 504.221L637.85 504.309L655.572 515.17Z" stroke="black" stroke-opacity="0.1"/>
<path d="M484.592 234.858C486.182 235.832 486.173 238.118 484.633 239.095L484.479 239.186L466.213 249.104C464.522 250.022 462.471 248.765 462.521 246.841L463.065 226.063C463.114 224.2 465.1 223.064 466.716 223.909L466.871 223.997L484.592 234.858Z" stroke="black" stroke-opacity="0.1"/>
<path d="M443.433 316.9C445.023 317.874 445.013 320.161 443.474 321.138L443.32 321.228L425.054 331.146C423.363 332.064 421.312 330.807 421.362 328.884L421.906 308.106C421.955 306.242 423.941 305.106 425.556 305.952L425.711 306.04L443.433 316.9Z" stroke="black" stroke-opacity="0.1"/>
<path d="M586.791 413.198C588.381 414.172 588.371 416.459 586.832 417.436L586.678 417.527L568.412 427.445C566.721 428.363 564.67 427.106 564.72 425.182L565.264 404.404C565.313 402.54 567.299 401.405 568.915 402.25L569.07 402.338L586.791 413.198Z" stroke="black" stroke-opacity="0.1"/>
<rect x="544.53" y="260.122" width="19" height="19" rx="2.5" transform="rotate(56 544.53 260.122)" stroke="black" stroke-opacity="0.1"/>
<rect x="487.488" y="431.281" width="19" height="19" rx="2.5" transform="rotate(56 487.488 431.281)" stroke="black" stroke-opacity="0.1"/>
<rect x="622.098" y="294.649" width="19" height="19" rx="2.5" transform="rotate(56 622.098 294.649)" stroke="black" stroke-opacity="0.1"/>
<rect x="497.336" y="354.678" width="19" height="19" rx="2.5" transform="rotate(56 497.336 354.678)" stroke="black" stroke-opacity="0.1"/>
<rect x="637.762" y="421.593" width="19" height="19" rx="2.5" transform="rotate(56 637.762 421.593)" stroke="black" stroke-opacity="0.1"/>
<rect x="700.522" y="435.953" width="19" height="19" rx="2.5" transform="rotate(56 700.522 435.953)" stroke="black" stroke-opacity="0.1"/>
<circle cx="550.57" cy="351.339" r="12" transform="rotate(56 550.57 351.339)" stroke="black" stroke-opacity="0.1"/>
<circle cx="620.83" cy="367.877" r="12" transform="rotate(56 620.83 367.877)" stroke="black" stroke-opacity="0.1"/>
<circle cx="563.227" cy="486.342" r="12" transform="rotate(56 563.227 486.342)" stroke="black" stroke-opacity="0.1"/>
<path d="M719.771 479.988C721.417 479.113 723.382 480.282 723.443 482.104L723.443 482.283L722.718 503.055C722.65 504.978 720.526 506.108 718.894 505.088L701.267 494.074C699.687 493.086 699.716 490.798 701.264 489.835L701.419 489.746L719.771 479.988Z" stroke="black" stroke-opacity="0.1"/>
<path d="M1048.54 548.044C1050.18 547.169 1052.15 548.338 1052.21 550.161L1052.21 550.339L1051.49 571.111C1051.42 573.034 1049.29 574.164 1047.66 573.144L1030.04 562.13C1028.45 561.142 1028.48 558.854 1030.03 557.891L1030.19 557.802L1048.54 548.044Z" stroke="black" stroke-opacity="0.1"/>
<path d="M720.235 553.096C721.881 552.221 723.846 553.39 723.907 555.213L723.907 555.391L723.182 576.163C723.114 578.086 720.99 579.216 719.358 578.196L701.731 567.182C700.151 566.194 700.18 563.906 701.728 562.943L701.883 562.854L720.235 553.096Z" stroke="black" stroke-opacity="0.1"/>
<path d="M925.768 555.554C927.414 554.678 929.38 555.847 929.44 557.67L929.44 557.848L928.715 578.62C928.648 580.543 926.524 581.673 924.892 580.653L907.265 569.639C905.684 568.651 905.713 566.363 907.261 565.4L907.416 565.311L925.768 555.554Z" stroke="black" stroke-opacity="0.1"/>
<rect x="772.424" y="514.276" width="19" height="19" rx="2.5" transform="rotate(-3.5 772.424 514.276)" stroke="black" stroke-opacity="0.1"/>
<rect x="841.542" y="464.964" width="19" height="19" rx="2.5" transform="rotate(-3.5 841.542 464.964)" stroke="black" stroke-opacity="0.1"/>
<rect x="958.87" y="515.896" width="19" height="19" rx="2.5" transform="rotate(-3.5 958.87 515.896)" stroke="black" stroke-opacity="0.1"/>
<rect x="1003.1" y="469.109" width="19" height="19" rx="2.5" transform="rotate(-3.5 1003.1 469.109)" stroke="black" stroke-opacity="0.1"/>
<circle cx="854.084" cy="555.367" r="12" transform="rotate(-3.5 854.084 555.367)" stroke="black" stroke-opacity="0.1"/>
<circle cx="903.994" cy="503.223" r="12" transform="rotate(-3.5 903.994 503.223)" stroke="black" stroke-opacity="0.1"/>
<path d="M623.088 591.981C623.088 593.845 621.133 595.032 619.496 594.23L619.338 594.146L601.338 583.754C599.672 582.791 599.672 580.386 601.338 579.424L619.339 569.031C620.953 568.099 622.959 569.199 623.083 571.018L623.089 571.196L623.088 591.981Z" stroke="black" stroke-opacity="0.1"/>
<path d="M537.088 534.981C537.088 536.845 535.133 538.032 533.496 537.23L533.338 537.146L515.338 526.754C513.672 525.791 513.672 523.386 515.338 522.424L533.339 512.031C534.953 511.099 536.959 512.199 537.083 514.018L537.089 514.196L537.088 534.981Z" stroke="black" stroke-opacity="0.1"/>
<path d="M414.088 442.981C414.088 444.845 412.134 446.032 410.496 445.23L410.338 445.146L392.338 434.754C390.672 433.791 390.672 431.386 392.338 430.424L410.339 420.031C411.953 419.099 413.959 420.199 414.083 422.018L414.089 422.196L414.088 442.981Z" stroke="black" stroke-opacity="0.1"/>
<rect x="477.908" y="486.131" width="19" height="19" rx="2.5" transform="rotate(114.5 477.908 486.131)" stroke="black" stroke-opacity="0.1"/>
<rect x="488.998" y="570.309" width="19" height="19" rx="2.5" transform="rotate(114.5 488.998 570.309)" stroke="black" stroke-opacity="0.1"/>
<rect x="372.627" y="495.297" width="19" height="19" rx="2.5" transform="rotate(114.5 372.627 495.297)" stroke="black" stroke-opacity="0.1"/>
<circle cx="403.289" cy="538.942" r="12" transform="rotate(114.5 403.289 538.942)" stroke="black" stroke-opacity="0.1"/>
<path d="M725.038 252.062C726.735 251.289 728.625 252.576 728.574 254.399L728.564 254.577L726.572 275.266C726.387 277.181 724.198 278.179 722.631 277.062L705.71 264.992C704.192 263.909 704.361 261.628 705.965 260.761L706.125 260.682L725.038 252.062Z" stroke="black" stroke-opacity="0.1"/>
<path d="M1049.04 340.062C1050.73 339.289 1052.63 340.576 1052.57 342.399L1052.56 342.577L1050.57 363.266C1050.39 365.181 1048.2 366.179 1046.63 365.062L1029.71 352.992C1028.19 351.909 1028.36 349.628 1029.97 348.761L1030.13 348.682L1049.04 340.062Z" stroke="black" stroke-opacity="0.1"/>
<path d="M721.038 325.062C722.735 324.289 724.625 325.576 724.574 327.399L724.564 327.577L722.572 348.266C722.387 350.181 720.198 351.179 718.631 350.062L701.71 337.992C700.192 336.909 700.361 334.628 701.965 333.761L702.125 333.682L721.038 325.062Z" stroke="black" stroke-opacity="0.1"/>
<path d="M766.038 405.062C767.735 404.289 769.625 405.576 769.574 407.399L769.564 407.577L767.572 428.266C767.387 430.181 765.198 431.179 763.631 430.062L746.71 417.992C745.192 416.909 745.361 414.628 746.965 413.761L747.125 413.682L766.038 405.062Z" stroke="black" stroke-opacity="0.1"/>
<path d="M926.038 340.062C927.735 339.289 929.625 340.576 929.574 342.399L929.564 342.577L927.572 363.266C927.387 365.181 925.198 366.179 923.631 365.062L906.71 352.992C905.192 351.909 905.361 349.628 906.965 348.761L907.125 348.682L926.038 340.062Z" stroke="black" stroke-opacity="0.1"/>
<rect x="775.5" y="289.5" width="19" height="19" rx="2.5" stroke="black" stroke-opacity="0.1"/>
<rect x="885.5" y="432.5" width="19" height="19" rx="2.5" stroke="black" stroke-opacity="0.1"/>
<rect x="847.5" y="244.5" width="19" height="19" rx="2.5" stroke="black" stroke-opacity="0.1"/>
<rect x="827.5" y="381.5" width="19" height="19" rx="2.5" stroke="black" stroke-opacity="0.1"/>
<rect x="961.5" y="302.5" width="19" height="19" rx="2.5" stroke="black" stroke-opacity="0.1"/>
<rect x="1008.5" y="258.5" width="19" height="19" rx="2.5" stroke="black" stroke-opacity="0.1"/>
<circle cx="854.5" cy="335.5" r="12" stroke="black" stroke-opacity="0.1"/>
<circle cx="907.5" cy="286.5" r="12" stroke="black" stroke-opacity="0.1"/>
<circle cx="973.5" cy="400.5" r="12" stroke="black" stroke-opacity="0.1"/>
</svg>
